
        <svg xmlns="http://www.w3.org/2000/svg" xmlns:xlink="http://www.w3.org/1999/xlink" version="1.1" width="3185.7585139318885" 
        height="1151.7027863777091" viewBox="0 0 3185.7585139318885 1151.7027863777091">
			
			<g transform="scale(9.287925696594428) translate(10, 10)">
				<defs id="SvgjsDefs8211"><linearGradient id="SvgjsLinearGradient8220"><stop id="SvgjsStop8221" stop-color="#8f5e25" offset="0"></stop><stop id="SvgjsStop8222" stop-color="#fbf4a1" offset="0.5"></stop><stop id="SvgjsStop8223" stop-color="#8f5e25" offset="1"></stop></linearGradient><linearGradient id="SvgjsLinearGradient8224"><stop id="SvgjsStop8225" stop-color="#8f5e25" offset="0"></stop><stop id="SvgjsStop8226" stop-color="#fbf4a1" offset="0.5"></stop><stop id="SvgjsStop8227" stop-color="#8f5e25" offset="1"></stop></linearGradient><linearGradient id="SvgjsLinearGradient8228"><stop id="SvgjsStop8229" stop-color="#8f5e25" offset="0"></stop><stop id="SvgjsStop8230" stop-color="#fbf4a1" offset="0.5"></stop><stop id="SvgjsStop8231" stop-color="#8f5e25" offset="1"></stop></linearGradient><linearGradient id="SvgjsLinearGradient8232"><stop id="SvgjsStop8233" stop-color="#8f5e25" offset="0"></stop><stop id="SvgjsStop8234" stop-color="#fbf4a1" offset="0.5"></stop><stop id="SvgjsStop8235" stop-color="#8f5e25" offset="1"></stop></linearGradient></defs><g id="SvgjsG8212" featureKey="symbolContainer" transform="matrix(1,0,0,1,0,0)" fill="url(#SvgjsLinearGradient8220)">    <path xmlns="http://www.w3.org/2000/svg" fill-rule="nonzero" d="             M0,0             H103             V104             H0,0             z             M4,4             v96             h95             v-96             z     "></path></g><g id="SvgjsG8213" featureKey="monogramFeature-0" transform="matrix(1.7386986972418579,0,0,1.7386986972418579,13.035765776418915,-15.83607601197508)" fill="url(#SvgjsLinearGradient8224)"><path d="M23.94 60.84 c-12 0 -21.66 -9.18 -21.66 -21.72 l0 -0.12 c0 -12.24 9.42 -21.84 22.14 -21.84 c8.58 0 14.1 3.6 17.82 8.76 l-8.76 6.78 c-2.4 -3 -5.16 -4.92 -9.18 -4.92 c-5.88 0 -10.02 4.98 -10.02 11.1 l0 0.12 c0 6.3 4.14 11.22 10.02 11.22 c4.38 0 6.96 -2.04 9.48 -5.1 l8.76 6.24 c-3.96 5.46 -9.3 9.48 -18.6 9.48 z"></path></g><g id="SvgjsG8214" featureKey="nameFeature-0" transform="matrix(1.02113372549817,0,0,1.02113372549817,120.90667469413394,6.671340033121092)" fill="url(#SvgjsLinearGradient8228)"><path d="M16.113 40.37109 c-8.0078 0 -14.063 -5.4688 -14.063 -14.316 c0 -8.8086 6.0547 -14.297 14.063 -14.297 c5.8594 0 10.664 2.9688 12.754 7.9492 l-4.3555 1.6602 c-1.4453 -3.3398 -4.6094 -5.2539 -8.3984 -5.2539 c-5.2734 0 -9.3945 3.6719 -9.3945 9.9414 c0 6.3086 4.1211 9.9609 9.3945 9.9609 c3.7891 0 6.9531 -1.8945 8.3984 -5.2344 l4.3555 1.6602 c-2.0898 4.9805 -6.8945 7.9297 -12.754 7.9297 z M46.1914375 40.37109 c-7.8906 0 -13.867 -5.4102 -13.867 -14.238 c0 -8.8867 6.0547 -14.375 14.063 -14.375 c5.2344 0 9.6484 2.3047 12.07 6.5234 l-4.1211 2.207 c-1.6406 -3.1055 -4.5703 -4.5703 -7.9492 -4.5703 c-5.293 0 -9.3555 3.6133 -9.3555 10.117 c0 6.3672 3.9063 10.195 9.5313 10.195 c4.2578 0 7.793 -2.2852 8.4961 -7.0703 l-8.4961 0 l0 -3.8477 l12.969 0 l0 14.688 l-3.7305 0 l0 -4.5313 c-1.8359 3.0859 -5.0781 4.9023 -9.6094 4.9023 z M73.5545625 12.148 l4.2578 0 l0 27.852 l-4.4922 0 l0 -23.125 l-6.543 5.8789 l0 -4.6875 z M90.9179875 16.602 c-1.5234 0 -2.7734 -1.25 -2.7734 -2.7539 c0 -1.5234 1.25 -2.7539 2.7734 -2.7539 c1.4844 0 2.7539 1.2305 2.7539 2.7539 c0 1.5039 -1.2695 2.7539 -2.7539 2.7539 z M88.6132875 40 l0 -19.648 l4.5117 0 l0 19.648 l-4.5117 0 z M121.19159375 19.98 c3.9453 0 6.6211 2.1875 6.6211 6.25 l0 13.77 l-4.5117 0 l0 -12.52 c0 -2.6563 -1.6016 -3.8281 -3.4375 -3.8281 c-2.1484 0 -3.9063 1.3281 -3.9063 4.7461 l0 11.602 l-4.5703 0 l0 -12.422 c0 -2.7148 -1.582 -3.9258 -3.4961 -3.9258 c-2.1094 0 -3.9258 1.3281 -3.9258 4.9414 l0 11.406 l-4.4727 0 l0 -19.648 l4.4727 0 l0 2.4219 c1.2305 -1.7773 3.1641 -2.793 5.5469 -2.793 c2.6758 0 4.7656 1.0742 5.7813 3.0664 c1.2891 -2.0313 3.3594 -3.0664 5.8984 -3.0664 z M138.45703125 40.37109 c-3.1836 0 -6.0547 -1.5234 -6.0547 -5.3516 c0 -4.1992 3.418 -5.5078 7.5195 -6.25 l2.9688 -0.54688 c1.2891 -0.25391 1.8164 -0.83984 1.8164 -1.7773 c0 -2.4219 -1.8945 -3.2227 -3.8477 -3.2227 c-2.1289 0 -3.8672 0.9375 -4.1602 3.457 l-4.043 -0.74219 c0.68359 -4.0625 3.6133 -5.9375 8.4766 -5.9375 c3.9258 0 7.8906 1.4063 7.8906 6.9336 l0 7.6172 c0 1.8555 0.48828 2.3828 1.8555 2.3828 l0.3125 0 l0 3.0664 l-2.1289 0 c-2.207 0 -3.5352 -0.78125 -3.9844 -2.5977 l-0.21484 0 c-1.5234 2.1484 -4.043 2.9688 -6.4063 2.9688 z M139.51173125 36.8359 c3.0859 0 5.4883 -2.2852 5.4883 -5.8789 l-5.0195 1.1133 c-2.0703 0.39063 -3.2227 1.0938 -3.2227 2.5781 c0 1.543 1.2109 2.1875 2.7539 2.1875 z M169.39428125 20.352 l4.3359 0 l0 18.418 c0 7.168 -3.9063 10.527 -10 10.527 c-5.293 0 -8.3594 -2.3047 -9.8438 -6.0547 l3.7305 -1.6797 c1.1328 2.7539 2.9883 4.1406 5.9375 4.1406 c3.7891 0 5.6445 -2.4609 5.6445 -6.6406 l0 -2.9102 c-1.1719 1.8945 -3.6328 3.2227 -6.4063 3.2227 c-4.8828 0 -8.9648 -3.9258 -8.9648 -9.7266 s4.1016 -9.668 9.0039 -9.668 c2.8906 0 5.3125 1.4063 6.4453 3.457 z M163.88628125 35.6641 c3.2227 0 5.7227 -2.7148 5.7227 -6.0156 s-2.4805 -6.0352 -5.7227 -6.0352 c-3.2031 0 -5.7031 2.5586 -5.7031 6.0352 c0 3.4375 2.5391 6.0156 5.7031 6.0156 z M197.91053125 29.844 l-0.058594 1.1328 l-14.941 0 c0.17578 3.9063 2.6953 5.7813 5.6836 5.7813 c2.1875 0 3.9648 -1.1133 4.8633 -3.0859 l4.1016 0.70313 c-1.3672 3.7891 -4.7656 5.9961 -8.9258 5.9961 c-6.0352 0 -10.137 -3.75 -10.137 -10.195 s4.1992 -10.215 10 -10.215 c5.4102 0 9.3945 3.1641 9.4141 9.8828 z M188.51553125 23.301 c-2.7539 0 -4.7852 1.3281 -5.4102 4.3164 l10.293 0 c-0.35156 -2.9102 -2.2852 -4.3164 -4.8828 -4.3164 z"></path></g><g id="SvgjsG8215" featureKey="sloganFeature-0" transform="matrix(1,0,0,1,122.03999996185303,66.78000020980835)" fill="url(#SvgjsLinearGradient8232)"><path d="M13.24 9.78 l-1.4 0 c-0.56 -2.46 -2.08 -3.4 -4.54 -3.4 c-3.48 0 -4.98 2.98 -4.98 6.38 c0 3.22 1.18 6.46 5.1 6.46 c2.48 0 4.02 -1.68 4.56 -3.96 l1.42 0 c-0.64 2.78 -2.38 5.12 -6.24 5.12 c-4.44 0 -6.2 -3.5 -6.2 -7.58 c0 -5.5 2.88 -7.58 6.7 -7.58 c2.96 0 5.12 1.58 5.58 4.56 z M15.5 12.82 c-0.02 -4.2 2.34 -7.6 6.64 -7.6 c4.5 0 6.78 3.38 6.78 7.6 c0 4.14 -2.28 7.56 -6.72 7.56 s-6.7 -3.42 -6.7 -7.56 z M22.22 19.22 c3.74 0 5.34 -3.04 5.34 -6.4 c0 -4 -2.06 -6.44 -5.38 -6.44 c-3.7 0 -5.32 3.1 -5.32 6.44 c0 3.4 1.6 6.4 5.36 6.4 z M36.54 20 l-4.92 0 l0 -14.4 l4.92 0 c1.6 0 3.1 0.1 4.44 1.08 c1.9 1.38 2.4 4.18 2.4 6.1 c0 1.9 -0.42 4.02 -1.74 5.46 c-1.32 1.48 -3.2 1.76 -5.1 1.76 z M32.98 6.76 l0 12.08 l3.26 0 c1.22 0 2.28 -0.08 3.38 -0.66 c1.92 -0.98 2.4 -3.44 2.4 -5.4 c0 -2.1 -0.46 -4.4 -2.48 -5.48 c-0.86 -0.46 -2.1 -0.54 -3.3 -0.54 l-3.26 0 z M55.839999999999996 20 l-9.78 0 l0 -14.4 l9.58 0 l0 1.16 l-8.22 0 l0 5.2 l7.42 0 l0 1.16 l-7.42 0 l0 5.72 l8.42 0 l0 1.16 z M59.62 12.3 l4.24 0 c2.02 0 3.58 -0.84 3.58 -2.86 c0 -2.16 -1.68 -2.68 -3.5 -2.68 l-4.32 0 l0 5.54 z M63.9 13.46 l-4.28 0 l0 6.54 l-1.36 0 l0 -14.4 l5.64 0 c3.16 0 4.9 1.12 4.9 3.78 c0 1.82 -0.68 2.78 -2.34 3.52 c1.7 0.58 1.8 2.38 1.84 3.9 c0.06 2.18 0.24 2.78 0.6 3.06 l0 0.14 l-1.5 0 c-0.56 -0.98 -0.42 -3.68 -0.64 -4.78 c-0.32 -1.56 -1.5 -1.76 -2.86 -1.76 z M75.88 6.76 l0 -1.16 l10.48 0 l0 1.16 l-4.56 0 l0 13.24 l-1.36 0 l0 -13.24 l-4.56 0 z M98.08000000000001 20 l-9.78 0 l0 -14.4 l9.58 0 l0 1.16 l-8.22 0 l0 5.2 l7.42 0 l0 1.16 l-7.42 0 l0 5.72 l8.42 0 l0 1.16 z M112.14 9.78 l-1.4 0 c-0.56 -2.46 -2.08 -3.4 -4.54 -3.4 c-3.48 0 -4.98 2.98 -4.98 6.38 c0 3.22 1.18 6.46 5.1 6.46 c2.48 0 4.02 -1.68 4.56 -3.96 l1.42 0 c-0.64 2.78 -2.38 5.12 -6.24 5.12 c-4.44 0 -6.2 -3.5 -6.2 -7.58 c0 -5.5 2.88 -7.58 6.7 -7.58 c2.96 0 5.12 1.58 5.58 4.56 z M116.3 20 l-1.36 0 l0 -14.4 l1.36 0 l0 6.18 l8.52 0 l0 -6.18 l1.36 0 l0 14.4 l-1.36 0 l0 -7.06 l-8.52 0 l0 7.06 z M139.04 20 l-8.28 -12.56 l-0.04 0 l0 12.56 l-1.36 0 l0 -14.4 l1.54 0 l8.32 12.58 l0.04 0 l0 -12.58 l1.36 0 l0 14.4 l-1.58 0 z M145.68 20 l-1.36 0 l0 -14.4 l1.36 0 l0 14.4 z M161.02 9.78 l-1.4 0 c-0.56 -2.46 -2.08 -3.4 -4.54 -3.4 c-3.48 0 -4.98 2.98 -4.98 6.38 c0 3.22 1.18 6.46 5.1 6.46 c2.48 0 4.02 -1.68 4.56 -3.96 l1.42 0 c-0.64 2.78 -2.38 5.12 -6.24 5.12 c-4.44 0 -6.2 -3.5 -6.2 -7.58 c0 -5.5 2.88 -7.58 6.7 -7.58 c2.96 0 5.12 1.58 5.58 4.56 z M165.68 20 l-1.36 0 l0 -14.4 l1.36 0 l0 14.4 z M169.48 20 l-1.4 0 l5.66 -14.4 l1.54 0 l5.52 14.4 l-1.4 0 l-1.66 -4.52 l-6.56 0 z M174.46 6.76 l-2.82 7.56 l5.64 0 z M192.38 20 l-8.28 -12.56 l-0.04 0 l0 12.56 l-1.36 0 l0 -14.4 l1.54 0 l8.32 12.58 l0.04 0 l0 -12.58 l1.36 0 l0 14.4 l-1.58 0 z"></path></g>
			</g>
		</svg>
	