<svg id="ProjectImageExample" xmlns="http://www.w3.org/2000/svg" width="872" height="786" viewBox="0 0 872 786">
  <g id="Rectangle_1" data-name="Rectangle 1" fill="#030303" stroke="#707070" stroke-width="1">
    <rect width="872" height="786" rx="65" stroke="none"/>
    <rect x="0.5" y="0.5" width="871" height="785" rx="64.5" fill="none"/>
  </g>
  <text id="Project_image_goes_here." data-name="Project image goes here." transform="translate(326 726)" fill="#fff" font-size="38" font-family="Poppins-Regular, Poppins"><tspan x="0" y="0">Project image goes here.</tspan></text>
  <g id="Component_1_1" data-name="Component 1 – 1" transform="translate(26.532 6.75)">
    <path id="Path_1" data-name="Path 1" d="M733.063,173.909c.375-.552,9.7,8.839,18.188,6.907,10.57-2.407,18.3-22.04,12.57-30.437-3.793-5.557-13.227-5.818-13.031-6.861.21-1.115,10.363,2.623,15.886-1.842,6.71-5.424,5.308-21.922-2.9-30.575-1.642-1.731-4.37-4.607-8.288-4.835-7.7-.447-13.737,9.683-16.392,14.136-8.443,14.157-9.134,29.01-10.176,28.871-.963-.129,1.594-12.558-3.039-15.1a4.789,4.789,0,0,0-3.419-.273,10.563,10.563,0,0,0,.632-2.422c.7-5.235-3.464-10.8-8.378-15.465,5.118,3.032,10.9,5.134,16.021,3.631,11.434-3.359,19.042-24.56,13.031-37.574-4.2-9.09-14.9-13.892-14.551-14.412.375-.552,9.7,8.839,18.188,6.907,10.57-2.407,18.3-22.04,12.57-30.437-3.793-5.557-13.227-5.818-13.031-6.861.21-1.115,10.363,2.623,15.886-1.842,6.71-5.424,5.308-21.922-2.9-30.575-1.642-1.731-4.37-4.607-8.288-4.835-7.7-.447-13.737,9.683-16.392,14.136-8.443,14.157-9.134,29.01-10.176,28.871-.963-.129,1.594-12.558-3.039-15.1-2.9-1.594-7.363,1.379-8.749,2.3-15.239,10.153-11.016,32.229-25.095,55.716a63.8,63.8,0,0,1-12.86,15.494c-1.741-21.029,4.671-37.172-5.042-49.4-1.036-1.3-4.371-5.5-7.621-4.875-5.19,1-6.57,13.615-7.526,13.442-1.034-.187,2.864-14.536-.828-30.6-1.161-5.053-3.8-16.549-11.265-18.484-3.8-.985-7.278.915-9.372,2.059-10.468,5.717-16.863,20.989-12.141,28.21,3.887,5.944,14.7,5.5,14.555,6.627-.133,1.052-9.192-1.593-14.508,2.532-8.031,6.234-6.7,27.291,2.627,32.825,7.483,4.442,19.243-1.634,19.43-.994.177.6-11.486,1.89-18.271,9.253a26.324,26.324,0,0,0-5.84,11.513c-9.239.694-17.147,7.315-17.443,6.8-.335-.577,12.173-4.91,14.111-13.394,2.415-10.568-11.922-26.049-21.974-24.526-6.653,1.008-10.979,9.4-11.833,8.767-.914-.673,6.858-8.2,5.23-15.113-1.978-8.4-17.451-14.29-28.808-10.646-2.272.729-6.047,1.94-7.951,5.372-3.74,6.74,2.768,16.577,5.629,20.9,9.1,13.747,22.179,20.812,21.6,21.69-.533.812-10.625-6.882-14.927-3.811-2.694,1.923-1.951,7.233-1.72,8.882,2.539,18.135,24.263,23.9,39.321,46.775,12.262,18.624,7.03,28.732,17.418,33.781,4.46,2.167,10.138,2.586,15.942,1.543h0c-4.492,30.078-5.761,81.517-5.761,81.517-1.268,51.453-7.882,93.827-10.778,93.746-1.608-.049-1.015-13.009-5.886-33.852-3.418-14.613-5.032-13.939-13.908-40.012q-21.127-62.039-21.141-62.145a23.814,23.814,0,0,0-.712-4.55c10.425-2.917,20.548-10.39,24.064-20.877,2.813-8.39,2.074-20.852-4.769-25.342-4.415-2.9-11.233-1.563-17.568.842,4.952-3.3,9.355-7.6,10.219-12.862,1.932-11.76-13.872-27.809-28.205-28.037-10.011-.159-18.981,7.4-19.3,6.861-.335-.577,12.173-4.91,14.111-13.393,2.415-10.568-11.922-26.049-21.974-24.527-6.652,1.008-10.979,9.4-11.833,8.767-.914-.673,6.858-8.2,5.23-15.113-1.978-8.4-17.451-14.289-28.808-10.646-2.272.729-6.047,1.94-7.951,5.372-3.74,6.74,2.768,16.577,5.629,20.9,9.1,13.747,22.179,20.812,21.6,21.69-.533.812-10.625-6.882-14.927-3.811-2.694,1.923-1.95,7.233-1.72,8.882,2.539,18.135,24.263,23.9,39.321,46.775,12.262,18.624,7.03,28.732,17.418,33.781a20.72,20.72,0,0,0,5.919,1.781v.01c.914,14.22,26.532,52.436,40.79,106.77,7.1,27.07,10.988,41.838,8.191,62.4-2.763,20.387-10.435,34.147-10.3,43.232a12.446,12.446,0,0,0,.242,2.392l42.107-5.527a19.753,19.753,0,0,0,.68-2.513c3.207-15.468-8.492-38.977-2.547-76.892,4.415-28.134,16.511-51.276,22.151-62.057,6.93-13.259,15.117-25.73,23.958-45.1a30.658,30.658,0,0,0,18.5,3.983c8.78-1.1,19.689-7.174,20.767-15.288.7-5.235-3.464-10.8-8.378-15.464,5.118,3.032,10.9,5.134,16.021,3.63,11.434-3.359,19.042-24.56,13.031-37.574-4.2-9.089-14.9-13.892-14.551-14.412Zm-171.31,13.863c-.031-.061.409-.252,1.175-.563C562.206,187.614,561.784,187.833,561.753,187.772Zm139.976-81.866c-.678-.475-1.058-.76-1.017-.814S701.117,105.351,701.729,105.907Zm-43.667,21.705c.753-.341,1.195-.527,1.218-.463S658.853,127.368,658.062,127.612Zm-34.607,24.651c-.031-.061.409-.252,1.175-.563C623.908,152.1,623.486,152.324,623.455,152.263Zm12.113,108.774c-1.011-.228,11.286-49.966,13.3-76.373,5.836-3.826,10.63-9.214,12.832-15.782.038-.114.073-.232.11-.347q1.751-.243,3.478-.653c-4.115,10.405-6.411,17.961-6.411,17.961-10.686,35.2-22.39,75.4-23.312,75.193Zm45.9-16.238c-3.375,5.175-7.329,11.537-12.775,21.268-13.968,24.931-20.945,37.388-22.78,46.27a227.771,227.771,0,0,1-8.855,31.458c-2.979,8.3-4.469,12.445-5.6,12.277-3.209-.488-3.263-33.215,5.619-67.1,1.522-5.768,2.736-9.491,5.044-16.531,3.744-11.484,24.608-75.32,41.021-114.046l0-.005a23.8,23.8,0,0,0,6.412-9.727,13.988,13.988,0,0,0,.635-3.133,28.356,28.356,0,0,0,12.141,1.235,30.668,30.668,0,0,0,7.1-1.83c-6.554,11.615-6.448,29.008-17.386,47.256-11.464,19.126-22.841,18.795-22.885,30.345-.029,7.67,4.964,16.155,12.318,22.257l-.005.008Zm23.1-33.454c.042-.054.4.259,1.017.814C704.9,211.684,704.518,211.4,704.56,211.345Z" transform="translate(0)" fill="#f2f2f2"/>
    <path id="Path_2" data-name="Path 2" d="M264.226,161.609c6.429-1.071,13.425,6.781,16.348,10.06,7.8,8.755,9.43,18.941,10.06,23.264,9.941,68.226,14.911,102.338-5.659,118.205-19.549,15.079-55.281,11.035-62.246-2.515-2.713-5.278-.445-10.8,3.144-21.378,6.632-19.548,10.541-39.922,16.348-59.731,13.258-45.232,12.145-66.262,22.006-67.9Z" transform="translate(0)" fill="#2f2e41"/>
    <path id="Path_3" data-name="Path 3" d="M88.8,416.253,57.519,475.3c-7.986,15.074-45.777,247.272-28.971,250.2l72.8,2.415,30.2,1.585,31.046.447,76.954,2.553L196.321,430.085,88.8,416.253Z" transform="translate(0)" fill="#2f2e41"/>
    <path id="Path_4" data-name="Path 4" d="M165.826,243.032l62.246,2.515L233.1,266.3l14.99,12.228a19.967,19.967,0,0,1,7.1,18.609l-7,43.983s13.2,31.438-20.12,51.557l-33.324,54.073L79.058,434.8s-10.689-1.258-3.144-8.8,16.976-44.641,16.976-44.641-1.257-16.348,3.144-20.749,1.337-15.719,1.337-15.719l17.9-66.175a29.573,29.573,0,0,1,28.546-21.85h19.852l2.154-13.833Z" transform="translate(0)" fill="#6c63ff"/>
    <path id="Path_5" data-name="Path 5" d="M644.667,666.158,101.049,520.871a28.742,28.742,0,0,1-6.282-53.033L315.69,348.023a28.866,28.866,0,0,1,18.378-3.094l365.157,60.2a28.743,28.743,0,0,1,23.469,34.192l-42.462,204.9a28.792,28.792,0,0,1-28.072,22.928,29.01,29.01,0,0,1-7.494-.992Z" transform="translate(0)" fill="#fff"/>
    <path id="Path_6" data-name="Path 6" d="M644.667,666.158,101.049,520.871a28.742,28.742,0,0,1-6.282-53.033L315.69,348.023a28.866,28.866,0,0,1,18.378-3.094l365.157,60.2a28.743,28.743,0,0,1,23.469,34.192l-42.462,204.9a28.792,28.792,0,0,1-28.072,22.928,29.01,29.01,0,0,1-7.494-.992Zm54.07-258.071-365.157-60.2a25.857,25.857,0,0,0-16.46,2.771L96.2,470.474a25.742,25.742,0,0,0,5.625,47.5L645.441,663.259A25.744,25.744,0,0,0,677.3,643.613l42.462-204.9a25.742,25.742,0,0,0-21.02-30.622l.244-1.48-.244,1.48Z" transform="translate(0)" fill="#ccc"/>
    <path id="Path_7" data-name="Path 7" d="M619.761,464.494l-48.48,122.332A23.871,23.871,0,0,1,541.323,600.6L184.988,478c-19.675-6.77-21.874-33.718-3.555-43.587l114.675-61.781a23.871,23.871,0,0,1,16.314-2.328l290.14,62.053a23.871,23.871,0,0,1,17.2,32.137Z" transform="translate(0)" fill="#f2f2f2"/>
    <ellipse id="Ellipse_1" data-name="Ellipse 1" cx="20.12" cy="10.06" rx="20.12" ry="10.06" transform="translate(506.294 464.667)" fill="#ff6884"/>
    <ellipse id="Ellipse_2" data-name="Ellipse 2" cx="20.12" cy="10.06" rx="20.12" ry="10.06" transform="translate(487.432 495.475)" fill="#3f3d56"/>
    <ellipse id="Ellipse_3" data-name="Ellipse 3" cx="54.701" cy="27.351" rx="54.701" ry="27.351" transform="translate(344.706 436.687)" fill="#6c63ff"/>
    <path id="Path_8" data-name="Path 8" d="M304.466,462.781a1.887,1.887,0,0,0,.63-3.665L265.18,444.969a1.886,1.886,0,0,0-1.26,3.556l39.916,14.147a1.884,1.884,0,0,0,.63.109Z" transform="translate(0)" fill="#3f3d56"/>
    <path id="Path_9" data-name="Path 9" d="M313.268,455.865a1.887,1.887,0,0,0,.63-3.665l-39.916-14.147a1.886,1.886,0,0,0-1.26,3.556l39.916,14.147a1.884,1.884,0,0,0,.63.109Z" transform="translate(0)" fill="#3f3d56"/>
    <path id="Path_10" data-name="Path 10" d="M322.071,448.949a1.887,1.887,0,0,0,.63-3.665l-39.916-14.147a1.886,1.886,0,0,0-1.26,3.556l39.916,14.147a1.884,1.884,0,0,0,.63.109Z" transform="translate(0)" fill="#3f3d56"/>
    <path id="Path_11" data-name="Path 11" d="M330.873,442.032a1.887,1.887,0,0,0,.63-3.665L291.587,424.22a1.886,1.886,0,0,0-1.26,3.556l39.916,14.147a1.884,1.884,0,0,0,.63.109Z" transform="translate(0)" fill="#3f3d56"/>
    <path id="Path_12" data-name="Path 12" d="M339.676,435.116a1.887,1.887,0,0,0,.63-3.665L300.39,417.3a1.886,1.886,0,0,0-1.26,3.556l39.916,14.147a1.884,1.884,0,0,0,.63.109Z" transform="translate(0)" fill="#3f3d56"/>
    <path id="Path_13" data-name="Path 13" d="M348.478,428.2a1.887,1.887,0,0,0,.63-3.665l-39.916-14.147a1.886,1.886,0,1,0-1.26,3.556l39.916,14.147a1.884,1.884,0,0,0,.63.109Z" transform="translate(0)" fill="#3f3d56"/>
    <path id="Path_14" data-name="Path 14" d="M357.281,421.284a1.887,1.887,0,0,0,.63-3.665L318,403.472a1.886,1.886,0,1,0-1.26,3.556l39.916,14.147a1.884,1.884,0,0,0,.63.109Z" transform="translate(0)" fill="#3f3d56"/>
    <circle id="Ellipse_4" data-name="Ellipse 4" cx="51.557" cy="51.557" r="51.557" transform="translate(171.171 160.352)" fill="#a0616a"/>
    <path id="Path_15" data-name="Path 15" d="M233.417,135.2c-14.516-2.366-22.311-3.637-30.18-1.886-15.763,3.507-24.907,17.6-31.437,27.665-15.617,24.07-8.556,34.186-23.893,67.9-11,24.188-16.548,23.189-17.6,35.839-2.219,26.553,20.369,53.116,44.641,63.5,1.621.694,26.845,11.249,33.952,2.515,5.21-6.4-3.994-17.423-15.09-47.156-19.511-52.281-10.292-69.754-7.545-74.193,1.735-2.8,6.685-9.774,9.431-8.8,2.484.879.334,7.259,2.515,12.575,5.844,14.243,41.363,17.406,69.162,6.288,8.2-3.279,13.229-5.291,16.976-10.689,12.716-18.315-2.465-56.7-26.408-67.9-5.447-2.549-11.8-3.586-24.521-5.659Z" transform="translate(0)" fill="#2f2e41"/>
    <path id="b" d="M196.554,442.382c12.539,6.36,19.422,17.986,15.373,25.965s-17.494,9.29-30.038,2.926a35.188,35.188,0,0,1-12.772-10.632l-52.79-27.62,13.489-24.5,50.609,29.829a35.19,35.19,0,0,1,16.128,4.028Z" transform="translate(0)" fill="#a0616a"/>
    <path id="c" d="M443.448,406.845c13.209,4.818,21.43,15.538,18.363,23.944s-16.26,11.313-29.473,6.491a35.188,35.188,0,0,1-13.95-9.031l-55.709-21.12L373.146,381.2l53.808,23.573a35.19,35.19,0,0,1,16.494,2.074Z" transform="translate(0)" fill="#a0616a"/>
    <path id="Path_16" data-name="Path 16" d="M136.589,269.754s-10.689-22.006-35.21-5.03-82.995,87.4-82.995,87.4-30.18,26.408-13.2,35.839,138.954,64.133,138.954,64.133l30.809-21.378-109.4-55.959L128.384,327.6l8.206-57.845Z" transform="translate(0)" fill="#6c63ff"/>
    <path id="Path_17" data-name="Path 17" d="M243.477,282.958s7.481-10.689,20.717,0,51.33,72.235,51.33,72.235l93.944,38.425-13.832,28.294-112.546-40.24-49.042-66.647,9.431-32.066Z" transform="translate(0)" fill="#6c63ff"/>
    <path id="Path_18" data-name="Path 18" d="M237.5,263.781c-14.259,7.281-7.7,18.46-8.174,20.749-4.634,22.29,12.306,45.377,18.863,44.013,3.846-.8,5.868-10.381,5.03-17.605-1.087-9.365,7.919-24.188,6.916-30.809-2.461-16.243,12.386-16.547,9.431-22.635-1.732-3.568-23.569,1.949-32.066,6.288Z" transform="translate(0)" fill="#2f2e41"/>
    <path id="Path_19" data-name="Path 19" d="M402.787,492.835a1.369,1.369,0,0,0,.178-.011,1.5,1.5,0,0,0,1.313-1.666L400.9,462.6a1.5,1.5,0,0,0-1.669-1.312l-53.709,6.459a1.5,1.5,0,0,0,.358,2.979l52.217-6.279,3.205,27.061a1.5,1.5,0,0,0,1.488,1.323Z" transform="translate(0)" fill="#fff"/>
    <g id="Group_1" data-name="Group 1" transform="translate(0)">
      <circle id="Ellipse_5" data-name="Ellipse 5" cx="28" cy="28" r="28" transform="translate(98.217 464.413)" fill="#6c63ff"/>
      <path id="Path_20" data-name="Path 20" d="M113.5,488.046l9,15.827a1.512,1.512,0,0,0,2.59,0,52.367,52.367,0,0,1,14.6-17.649,1.553,1.553,0,0,0,.538-2.052,1.508,1.508,0,0,0-2.052-.538,55.665,55.665,0,0,0-15.674,18.726h2.59l-9-15.827a1.5,1.5,0,0,0-2.59,1.514h0Z" fill="#fff"/>
    </g>
  </g>
</svg>
